<svg xmlns="http://www.w3.org/2000/svg" viewBox="0 0 1100 530" width="1100" height="530" role="img" aria-label="A task's life: framed, briefed, building, reviewing, verifying, verified, merged. A product question holds the task until your answer. Findings or a QA failure send it to repairing, then to review again, at most 3 rounds. Verified needs one clean cycle; autopilot merges after two.">
<style>.pulse{animation:pulse 5s ease-in-out infinite}@keyframes pulse{50%{opacity:.55}}@media (prefers-reduced-motion:reduce){.pulse{animation:none}}</style>
<defs>
<linearGradient id="lifecycle-d-sky" x1="0" y1="0" x2="0" y2="1"><stop offset="0" stop-color="#080605"/><stop offset="0.45" stop-color="#1B120C"/><stop offset="0.72" stop-color="#22160E"/><stop offset="1" stop-color="#0A0706"/></linearGradient>
<radialGradient id="lifecycle-d-haze"><stop offset="0" stop-color="#FF8A2A" stop-opacity="0.6"/><stop offset="0.5" stop-color="#FF6A0F" stop-opacity="0.2"/><stop offset="1" stop-color="#FF6A0F" stop-opacity="0"/></radialGradient>
<radialGradient id="lifecycle-d-moonglow"><stop offset="0.55" stop-color="#F2CD96" stop-opacity="0.5"/><stop offset="1" stop-color="#F2CD96" stop-opacity="0"/></radialGradient>
<radialGradient id="lifecycle-d-moon" cx="0.4" cy="0.36" r="0.72"><stop offset="0" stop-color="#F8E7C6"/><stop offset="0.6" stop-color="#E4BC88"/><stop offset="1" stop-color="#B8844F"/></radialGradient>
<radialGradient id="lifecycle-d-iris" cx="0.51" cy="0.52" r="0.56"><stop offset="0" stop-color="#FFF4C2"/><stop offset="0.16" stop-color="#FFD54A"/><stop offset="0.4" stop-color="#FDB022"/><stop offset="0.66" stop-color="#EE7A0C"/><stop offset="0.86" stop-color="#A83E08"/><stop offset="1" stop-color="#4A1803"/></radialGradient>
<linearGradient id="lifecycle-d-lid" x1="0" y1="0.34" x2="0" y2="0.96"><stop offset="0" stop-color="#000" stop-opacity="0.85"/><stop offset="1" stop-color="#000" stop-opacity="0"/></linearGradient>
<linearGradient id="lifecycle-d-markR" x1="0" y1="0.5" x2="1" y2="0.3"><stop offset="0" stop-color="#B83A0A"/><stop offset="0.55" stop-color="#FF6A0F"/><stop offset="1" stop-color="#FFB050"/></linearGradient>
<linearGradient id="lifecycle-d-markL" x1="1" y1="0.5" x2="0" y2="0.3"><stop offset="0" stop-color="#B83A0A"/><stop offset="0.55" stop-color="#FF6A0F"/><stop offset="1" stop-color="#FFB050"/></linearGradient>
<linearGradient id="lifecycle-d-skin" x1="0" y1="0" x2="0" y2="1"><stop offset="0" stop-color="#040202"/><stop offset="0.32" stop-color="#1A110B"/><stop offset="0.6" stop-color="#33231A"/><stop offset="0.86" stop-color="#2C1E14"/><stop offset="1" stop-color="#3A2618"/></linearGradient>
<linearGradient id="lifecycle-d-robe" x1="0" y1="0" x2="0" y2="1"><stop offset="0" stop-color="#2B2018"/><stop offset="1" stop-color="#100B08"/></linearGradient>
<linearGradient id="lifecycle-d-bust" x1="0" y1="0" x2="0" y2="1"><stop offset="0" stop-color="#2B2018"/><stop offset="1" stop-color="#0A0604"/></linearGradient>
<linearGradient id="lifecycle-d-hood" x1="0" y1="0" x2="0" y2="1"><stop offset="0" stop-color="#382A1F"/><stop offset="1" stop-color="#18120D"/></linearGradient>
<linearGradient id="lifecycle-d-rock" x1="0" y1="0" x2="0" y2="1"><stop offset="0" stop-color="#33271D"/><stop offset="1" stop-color="#0D0907"/></linearGradient>
<radialGradient id="lifecycle-d-disc" cx="0.5" cy="0.42" r="0.62"><stop offset="0" stop-color="#3B2B1E"/><stop offset="1" stop-color="#100B08"/></radialGradient>
<radialGradient id="lifecycle-d-orb" cx="0.4" cy="0.38" r="0.65"><stop offset="0" stop-color="#FFF6D0"/><stop offset="0.45" stop-color="#FFC93C"/><stop offset="1" stop-color="#FF6A0F"/></radialGradient>
<linearGradient id="lifecycle-d-fall" x1="0" y1="0" x2="0" y2="1"><stop offset="0" stop-color="#F4E6CC" stop-opacity="0.95"/><stop offset="1" stop-color="#F4E6CC" stop-opacity="0"/></linearGradient>
<linearGradient id="lifecycle-d-word" x1="0" y1="0" x2="0" y2="1"><stop offset="0.2" stop-color="#FFF8EC"/><stop offset="0.5" stop-color="#FFD27A"/><stop offset="0.72" stop-color="#FF8A2A"/><stop offset="0.9" stop-color="#E2470A"/></linearGradient>
<linearGradient id="lifecycle-d-chief" x1="0" y1="0" x2="0" y2="1"><stop offset="0" stop-color="#FFA040"/><stop offset="1" stop-color="#F05A0A"/></linearGradient>
<filter id="lifecycle-d-wordglow" x="-10%" y="-20%" width="120%" height="140%"><feGaussianBlur in="SourceAlpha" stdDeviation="10" result="b"/><feFlood flood-color="#FF6A0F" flood-opacity="0.7"/><feComposite in2="b" operator="in" result="g"/><feMerge><feMergeNode in="g"/><feMergeNode in="SourceGraphic"/></feMerge></filter>
<filter id="lifecycle-d-glow" x="-50%" y="-50%" width="200%" height="200%"><feGaussianBlur in="SourceGraphic" stdDeviation="2.6" result="b"/><feMerge><feMergeNode in="b"/><feMergeNode in="SourceGraphic"/></feMerge></filter>
<filter id="lifecycle-d-blur" x="-50%" y="-50%" width="200%" height="200%"><feGaussianBlur stdDeviation="14"/></filter>
<filter id="lifecycle-d-mist" x="-30%" y="-200%" width="160%" height="500%"><feGaussianBlur stdDeviation="20"/></filter>
<marker id="lifecycle-d-hot" viewBox="0 0 12 12" refX="10" refY="6" markerWidth="9" markerHeight="9" markerUnits="userSpaceOnUse" orient="auto-start-reverse"><path d="M0 0 L12 6 L0 12 L3 6 z" fill="#FF6A0F"/></marker>
<marker id="lifecycle-d-muted" viewBox="0 0 12 12" refX="10" refY="6" markerWidth="9" markerHeight="9" markerUnits="userSpaceOnUse" orient="auto-start-reverse"><path d="M0 0 L12 6 L0 12 L3 6 z" fill="#8A705C"/></marker>
<marker id="lifecycle-d-bad" viewBox="0 0 12 12" refX="10" refY="6" markerWidth="9" markerHeight="9" markerUnits="userSpaceOnUse" orient="auto-start-reverse"><path d="M0 0 L12 6 L0 12 L3 6 z" fill="#FF6A55"/></marker>
<marker id="lifecycle-d-loop" viewBox="0 0 12 12" refX="10" refY="6" markerWidth="9" markerHeight="9" markerUnits="userSpaceOnUse" orient="auto-start-reverse"><path d="M0 0 L12 6 L0 12 L3 6 z" fill="#FFC93C"/></marker>
<clipPath id="lifecycle-d-frame"><rect width="1100" height="530" rx="24"/></clipPath>
</defs>
<g clip-path="url(#lifecycle-d-frame)">
<rect width="1100" height="530" rx="24" fill="#0C0806"/>
<circle cx="990" cy="250" r="134.4" fill="url(#lifecycle-d-moonglow)" opacity="0.3"/>
<circle cx="990" cy="250" r="100" fill="url(#lifecycle-d-moon)" opacity="0.22"/>
<path d="M-60 530 L-60 470 C-46 421.4 -42.5 381.7 -25 381.7 C-7.5 381.7 -4 406.2 10 436.2 C35.2 418 41.5 403.2 72.9 403.2 C104.4 403.2 110.6 420.2 135.8 441.1 C161 388.3 167.3 345.1 198.8 345.1 C230.3 345.1 236.6 391.4 261.8 448.1 C288.2 392.8 294.9 347.7 327.9 347.7 C361 347.7 367.6 387.8 394.1 436.8 C409.8 383.3 413.8 339.5 433.5 339.5 C453.2 339.5 457.1 381.9 472.9 433.6 C487 393.6 490.5 360.9 508.1 360.9 C525.7 360.9 529.2 407.6 543.3 464.8 C564.5 425.6 569.8 393.6 596.4 393.6 C623 393.6 628.3 426.3 649.5 466.1 C673 434.4 678.8 408.5 708.2 408.5 C737.5 408.5 743.3 421.5 766.8 437.3 C786.2 359.1 791 295.1 815.3 295.1 C839.5 295.1 844.3 363.6 863.7 447.5 C879.4 422.1 883.3 401.4 902.8 401.4 C922.3 401.4 926.3 415.7 941.9 433.2 C962.5 357.2 967.7 295.1 993.5 295.1 C1019.4 295.1 1024.5 365.5 1045.2 451.5 C1070.5 394.8 1076.8 348.4 1108.4 348.4 C1140 348.4 1146.4 392.7 1171.7 446.8 L1171.7 530 Z" fill="#3A2B21" opacity="0.3"/>
<path d="M-60 530 L-60 590 C-44 480.4 -40 390.8 -20 390.8 C0 390.8 4 475.2 20 578.3 C51.3 484.9 59.2 408.5 98.3 408.5 C137.4 408.5 145.2 483.2 176.5 574.6 C200.6 512 206.6 460.9 236.6 460.9 C266.6 460.9 272.7 513.2 296.7 577.1 C323.6 467.3 330.3 377.5 363.9 377.5 C397.5 377.5 404.2 473 431.1 589.6 C450.8 483.3 455.8 396.3 480.5 396.3 C505.2 396.3 510.2 469.4 530 558.8 C555.8 462.1 562.2 383 594.5 383 C626.7 383 633.2 469 659 574 C691.8 499.3 700.1 438.1 741.2 438.1 C782.3 438.1 790.5 493.7 823.4 561.6 C852.2 482.9 859.4 418.5 895.4 418.5 C931.4 418.5 938.6 488.8 967.4 574.7 C983.5 505 987.5 448 1007.5 448 C1027.5 448 1031.5 497.8 1047.5 558.7 C1063.6 481.2 1067.6 417.8 1087.7 417.8 C1107.8 417.8 1111.8 487 1127.8 571.5 C1149.9 486.8 1155.4 417.5 1183 417.5 C1210.6 417.5 1216.1 483.5 1238.2 564.1 L1238.2 530 Z" fill="#3A2B21" opacity="0.45"/>
<ellipse cx="140" cy="431.6" rx="201.8" ry="26" fill="#E9D6BC" opacity="0" filter="url(#lifecycle-d-mist)"/><ellipse cx="427.9" cy="452.6" rx="215.1" ry="26" fill="#E9D6BC" opacity="0" filter="url(#lifecycle-d-mist)"/><ellipse cx="743" cy="444.3" rx="242.7" ry="26" fill="#E9D6BC" opacity="0" filter="url(#lifecycle-d-mist)"/><ellipse cx="999.4" cy="408.3" rx="217.1" ry="26" fill="#E9D6BC" opacity="0" filter="url(#lifecycle-d-mist)"/>
<circle cx="745.7" cy="35.7" r="2" fill="#FF8A2A" opacity="0.4"/><circle cx="811.9" cy="201.5" r="2.4" fill="#FF8A2A" opacity="0.2"/><circle cx="409.9" cy="334" r="2.3" fill="#FFC93C" opacity="0.4"/><circle cx="71.7" cy="45.4" r="1.2" fill="#FFC93C" opacity="0.3"/><circle cx="582.4" cy="33.1" r="2.9" fill="#FFC93C" opacity="0.5"/><circle cx="1006" cy="474.2" r="0.8" fill="#FFC93C" opacity="0.3"/><circle cx="578.1" cy="294.8" r="1" fill="#FFC93C" opacity="0.2"/><circle cx="985.6" cy="505.1" r="1" fill="#FF8A2A" opacity="0.4"/><circle cx="1022.8" cy="321.2" r="2.2" fill="#FF8A2A" opacity="0.4"/><circle cx="39.2" cy="53.2" r="1.4" fill="#FFC93C" opacity="0.5"/><circle cx="88.5" cy="205.1" r="2.5" fill="#FF8A2A" opacity="0.2"/><circle cx="588.8" cy="75.2" r="2.2" fill="#FF8A2A" opacity="0.4"/><circle cx="829.8" cy="122.2" r="0.9" fill="#FF8A2A" opacity="0.3"/><circle cx="551.5" cy="52.4" r="2.5" fill="#FFC93C" opacity="0.3"/><circle cx="1021.6" cy="479.8" r="3" fill="#FFC93C" opacity="0.5"/><circle cx="258.8" cy="226.1" r="0.9" fill="#FF8A2A" opacity="0.3"/><circle cx="707.2" cy="206.7" r="1" fill="#FFC93C" opacity="0.2"/><circle cx="944" cy="95.9" r="2.4" fill="#FFC93C" opacity="0.3"/><circle cx="242.2" cy="87.4" r="1.1" fill="#FFC93C" opacity="0.4"/><circle cx="1072.8" cy="131.4" r="2" fill="#FFC93C" opacity="0.3"/><circle cx="697.4" cy="454" r="2.7" fill="#FFC93C" opacity="0.3"/><circle cx="124.3" cy="26.1" r="2.2" fill="#FF8A2A" opacity="0.4"/><circle cx="816.7" cy="509.4" r="2.4" fill="#FF8A2A" opacity="0.3"/><circle cx="664.7" cy="326.7" r="2.4" fill="#FFC93C" opacity="0.3"/><circle cx="1078.9" cy="321" r="1.6" fill="#FF8A2A" opacity="0.3"/><circle cx="890.9" cy="134.5" r="2.1" fill="#FFC93C" opacity="0.4"/><circle cx="621.3" cy="152.4" r="0.8" fill="#FFC93C" opacity="0.4"/><circle cx="915" cy="277.1" r="2.6" fill="#FF8A2A" opacity="0.3"/><circle cx="557.3" cy="328.6" r="1.9" fill="#FF8A2A" opacity="0.5"/><circle cx="980.1" cy="304.2" r="2.6" fill="#FF8A2A" opacity="0.4"/><circle cx="768.3" cy="309.7" r="2.5" fill="#FFC93C" opacity="0.3"/><circle cx="595.1" cy="208" r="2.2" fill="#FF8A2A" opacity="0.3"/><circle cx="33" cy="295.6" r="1.1" fill="#FFC93C" opacity="0.3"/><circle cx="877.8" cy="140.2" r="2.4" fill="#FFC93C" opacity="0.4"/><circle cx="781.5" cy="344.2" r="0.8" fill="#FF8A2A" opacity="0.4"/><circle cx="45.3" cy="224.8" r="1.4" fill="#FF8A2A" opacity="0.4"/><circle cx="873.8" cy="290.8" r="2.5" fill="#FF8A2A" opacity="0.4"/><circle cx="877.4" cy="503.8" r="2.6" fill="#FF8A2A" opacity="0.2"/><circle cx="178.7" cy="49.4" r="1.7" fill="#FFC93C" opacity="0.3"/><circle cx="556.6" cy="407.7" r="2.8" fill="#FFC93C" opacity="0.4"/>
<text x="36" y="62" font-family="-apple-system, BlinkMacSystemFont, 'Segoe UI', Inter, Helvetica, Arial, sans-serif" font-size="24" font-weight="800" fill="#FFC93C" text-anchor="start" letter-spacing="2"><tspan x="36" dy="0">THE STATES OF A TASK</tspan></text>
<rect x="36" y="104" width="100" height="50" rx="8" fill="#17100C" stroke="#8A705C" stroke-width="1.5"/><text x="86" y="137.4" font-family="-apple-system, BlinkMacSystemFont, 'Segoe UI', Inter, Helvetica, Arial, sans-serif" font-size="24" font-weight="700" fill="#FFF3E6" text-anchor="middle"><tspan x="86" dy="0">framed</tspan></text><path d="M140 129 L 159.8 129" fill="none" stroke="#FF6A0F" stroke-width="2" stroke-linecap="round" stroke-linejoin="round" marker-end="url(#lifecycle-d-hot)"/>
<rect x="165.8" y="104" width="113" height="50" rx="8" fill="#17100C" stroke="#8A705C" stroke-width="1.5"/><text x="222.3" y="137.4" font-family="-apple-system, BlinkMacSystemFont, 'Segoe UI', Inter, Helvetica, Arial, sans-serif" font-size="24" font-weight="700" fill="#FFF3E6" text-anchor="middle"><tspan x="222.3" dy="0">briefed</tspan></text><path d="M282.8 129 L 302.7 129" fill="none" stroke="#FF6A0F" stroke-width="2" stroke-linecap="round" stroke-linejoin="round" marker-end="url(#lifecycle-d-hot)"/>
<rect x="308.7" y="104" width="127" height="50" rx="8" fill="#17100C" stroke="#8A705C" stroke-width="1.5"/><text x="372.2" y="137.4" font-family="-apple-system, BlinkMacSystemFont, 'Segoe UI', Inter, Helvetica, Arial, sans-serif" font-size="24" font-weight="700" fill="#FFF3E6" text-anchor="middle"><tspan x="372.2" dy="0">building</tspan></text><path d="M439.7 129 L 459.5 129" fill="none" stroke="#FF6A0F" stroke-width="2" stroke-linecap="round" stroke-linejoin="round" marker-end="url(#lifecycle-d-hot)"/>
<rect x="465.5" y="104" width="141" height="50" rx="8" fill="#17100C" stroke="#8A705C" stroke-width="1.5"/><text x="536" y="137.4" font-family="-apple-system, BlinkMacSystemFont, 'Segoe UI', Inter, Helvetica, Arial, sans-serif" font-size="24" font-weight="700" fill="#FFF3E6" text-anchor="middle"><tspan x="536" dy="0">reviewing</tspan></text><path d="M610.5 129 L 630.3 129" fill="none" stroke="#FF6A0F" stroke-width="2" stroke-linecap="round" stroke-linejoin="round" marker-end="url(#lifecycle-d-hot)"/>
<rect x="636.3" y="104" width="141" height="50" rx="8" fill="#17100C" stroke="#8A705C" stroke-width="1.5"/><text x="706.8" y="137.4" font-family="-apple-system, BlinkMacSystemFont, 'Segoe UI', Inter, Helvetica, Arial, sans-serif" font-size="24" font-weight="700" fill="#FFF3E6" text-anchor="middle"><tspan x="706.8" dy="0">verifying</tspan></text><path d="M781.3 129 L 801.2 129" fill="none" stroke="#FF6A0F" stroke-width="2" stroke-linecap="round" stroke-linejoin="round" marker-end="url(#lifecycle-d-hot)"/>
<rect x="807.2" y="104" width="127" height="50" rx="8" fill="#17100C" stroke="#FF6A0F" stroke-width="2"/><text x="870.7" y="137.4" font-family="-apple-system, BlinkMacSystemFont, 'Segoe UI', Inter, Helvetica, Arial, sans-serif" font-size="24" font-weight="700" fill="#FFF3E6" text-anchor="middle"><tspan x="870.7" dy="0">verified</tspan></text><path d="M938.2 129 L 958 129" fill="none" stroke="#FF6A0F" stroke-width="2" stroke-linecap="round" stroke-linejoin="round" marker-end="url(#lifecycle-d-hot)"/>
<rect x="964" y="104" width="100" height="50" rx="8" fill="#17100C" stroke="#FF6A0F" stroke-width="2"/><text x="1014" y="137.4" font-family="-apple-system, BlinkMacSystemFont, 'Segoe UI', Inter, Helvetica, Arial, sans-serif" font-size="24" font-weight="700" fill="#FFF3E6" text-anchor="middle"><tspan x="1014" dy="0">merged</tspan></text>
<path d="M358.2 158 L 358.2 250" fill="none" stroke="#8A705C" stroke-width="2" stroke-linecap="round" stroke-linejoin="round" marker-end="url(#lifecycle-d-muted)"/>
<path d="M386.2 252 L 386.2 160" fill="none" stroke="#8A705C" stroke-width="2" stroke-linecap="round" stroke-linejoin="round" marker-end="url(#lifecycle-d-muted)"/>
<text x="344.2" y="196" font-family="-apple-system, BlinkMacSystemFont, 'Segoe UI', Inter, Helvetica, Arial, sans-serif" font-size="24" font-weight="400" fill="#CDB6A0" text-anchor="end"><tspan x="344.2" dy="0">a product</tspan><tspan x="344.2" dy="30">question</tspan></text>
<text x="400.2" y="196" font-family="-apple-system, BlinkMacSystemFont, 'Segoe UI', Inter, Helvetica, Arial, sans-serif" font-size="24" font-weight="400" fill="#CDB6A0" text-anchor="start"><tspan x="400.2" dy="0">your</tspan><tspan x="400.2" dy="30">answer</tspan></text>
<rect x="312.2" y="256" width="120" height="50" rx="8" fill="#17100C" stroke="#8A705C" stroke-width="1.5" stroke-dasharray="6 5"/><text x="372.2" y="289.4" font-family="-apple-system, BlinkMacSystemFont, 'Segoe UI', Inter, Helvetica, Arial, sans-serif" font-size="24" font-weight="700" fill="#FFF3E6" text-anchor="middle"><tspan x="372.2" dy="0">held</tspan></text>
<path d="M726.8 158 C 746.8 226, 746.8 281, 721.9 281" fill="none" stroke="#FF6A55" stroke-width="2" stroke-linecap="round" stroke-linejoin="round" marker-end="url(#lifecycle-d-bad)"/>
<text x="758.8" y="210" font-family="-apple-system, BlinkMacSystemFont, 'Segoe UI', Inter, Helvetica, Arial, sans-serif" font-size="24" font-weight="400" fill="#FF6A55" text-anchor="start"><tspan x="758.8" dy="0">findings to fix,</tspan><tspan x="758.8" dy="30">or QA fail</tspan></text>
<path d="M522.9 281 C 496 281, 506 216, 506 160" fill="none" stroke="#8A705C" stroke-width="2" stroke-linecap="round" stroke-linejoin="round" marker-end="url(#lifecycle-d-muted)"/>
<rect x="526.9" y="256" width="189" height="50" rx="8" fill="#17100C" stroke="#FF6A55" stroke-width="2"/><text x="621.4" y="289.4" font-family="-apple-system, BlinkMacSystemFont, 'Segoe UI', Inter, Helvetica, Arial, sans-serif" font-size="24" font-weight="700" fill="#FFF3E6" text-anchor="middle"><tspan x="621.4" dy="0">repairing</tspan></text>
<text x="621.4" y="340" font-family="-apple-system, BlinkMacSystemFont, 'Segoe UI', Inter, Helvetica, Arial, sans-serif" font-size="24" font-weight="400" fill="#CDB6A0" text-anchor="middle"><tspan x="621.4" dy="0">next round, at most 3</tspan></text>
<rect x="36" y="372" width="1028" height="132.8" rx="8" fill="#17100C" stroke="#FF6A0F" stroke-width="1.5"/>
<text x="64" y="412" font-family="-apple-system, BlinkMacSystemFont, 'Segoe UI', Inter, Helvetica, Arial, sans-serif" font-size="24" font-weight="700" fill="#FFF3E6" text-anchor="start"><tspan x="64" dy="0">Verified needs 1 clean cycle. Autopilot merges after 2 in a row.</tspan></text>
<text x="64" y="445.6" font-family="-apple-system, BlinkMacSystemFont, 'Segoe UI', Inter, Helvetica, Arial, sans-serif" font-size="24" font-weight="400" fill="#CDB6A0" text-anchor="start"><tspan x="64" dy="0">The state tool checks each move. A new commit voids the verdicts,</tspan><tspan x="64" dy="33.599999999999994">so the task is reviewed again.</tspan></text>
</g>
<rect x="0.75" y="0.75" width="1098.5" height="528.5" rx="23.25" fill="none" stroke="#3A2414" stroke-width="1.5"/>
</svg>
