<svg xmlns="http://www.w3.org/2000/svg" viewBox="0 0 1100 230" width="1100" height="230" role="img" aria-label="The toad sage's tip: start a message with sage mode to switch it on, and with sage mode off to switch it off. In the middle of a sentence, it does nothing.">
<style>.pulse{animation:pulse 5s ease-in-out infinite}@keyframes pulse{50%{opacity:.55}}@media (prefers-reduced-motion:reduce){.pulse{animation:none}}</style>
<defs>
<linearGradient id="tip-start-d-sky" x1="0" y1="0" x2="0" y2="1"><stop offset="0" stop-color="#080605"/><stop offset="0.45" stop-color="#1B120C"/><stop offset="0.72" stop-color="#22160E"/><stop offset="1" stop-color="#0A0706"/></linearGradient>
<radialGradient id="tip-start-d-haze"><stop offset="0" stop-color="#FF8A2A" stop-opacity="0.6"/><stop offset="0.5" stop-color="#FF6A0F" stop-opacity="0.2"/><stop offset="1" stop-color="#FF6A0F" stop-opacity="0"/></radialGradient>
<radialGradient id="tip-start-d-moonglow"><stop offset="0.55" stop-color="#F2CD96" stop-opacity="0.5"/><stop offset="1" stop-color="#F2CD96" stop-opacity="0"/></radialGradient>
<radialGradient id="tip-start-d-moon" cx="0.4" cy="0.36" r="0.72"><stop offset="0" stop-color="#F8E7C6"/><stop offset="0.6" stop-color="#E4BC88"/><stop offset="1" stop-color="#B8844F"/></radialGradient>
<radialGradient id="tip-start-d-iris" cx="0.51" cy="0.52" r="0.56"><stop offset="0" stop-color="#FFF4C2"/><stop offset="0.16" stop-color="#FFD54A"/><stop offset="0.4" stop-color="#FDB022"/><stop offset="0.66" stop-color="#EE7A0C"/><stop offset="0.86" stop-color="#A83E08"/><stop offset="1" stop-color="#4A1803"/></radialGradient>
<linearGradient id="tip-start-d-lid" x1="0" y1="0.34" x2="0" y2="0.96"><stop offset="0" stop-color="#000" stop-opacity="0.85"/><stop offset="1" stop-color="#000" stop-opacity="0"/></linearGradient>
<linearGradient id="tip-start-d-markR" x1="0" y1="0.5" x2="1" y2="0.3"><stop offset="0" stop-color="#B83A0A"/><stop offset="0.55" stop-color="#FF6A0F"/><stop offset="1" stop-color="#FFB050"/></linearGradient>
<linearGradient id="tip-start-d-markL" x1="1" y1="0.5" x2="0" y2="0.3"><stop offset="0" stop-color="#B83A0A"/><stop offset="0.55" stop-color="#FF6A0F"/><stop offset="1" stop-color="#FFB050"/></linearGradient>
<linearGradient id="tip-start-d-skin" x1="0" y1="0" x2="0" y2="1"><stop offset="0" stop-color="#040202"/><stop offset="0.32" stop-color="#1A110B"/><stop offset="0.6" stop-color="#33231A"/><stop offset="0.86" stop-color="#2C1E14"/><stop offset="1" stop-color="#3A2618"/></linearGradient>
<linearGradient id="tip-start-d-robe" x1="0" y1="0" x2="0" y2="1"><stop offset="0" stop-color="#2B2018"/><stop offset="1" stop-color="#100B08"/></linearGradient>
<linearGradient id="tip-start-d-bust" x1="0" y1="0" x2="0" y2="1"><stop offset="0" stop-color="#2B2018"/><stop offset="1" stop-color="#0A0604"/></linearGradient>
<linearGradient id="tip-start-d-hood" x1="0" y1="0" x2="0" y2="1"><stop offset="0" stop-color="#382A1F"/><stop offset="1" stop-color="#18120D"/></linearGradient>
<linearGradient id="tip-start-d-rock" x1="0" y1="0" x2="0" y2="1"><stop offset="0" stop-color="#33271D"/><stop offset="1" stop-color="#0D0907"/></linearGradient>
<radialGradient id="tip-start-d-disc" cx="0.5" cy="0.42" r="0.62"><stop offset="0" stop-color="#3B2B1E"/><stop offset="1" stop-color="#100B08"/></radialGradient>
<radialGradient id="tip-start-d-orb" cx="0.4" cy="0.38" r="0.65"><stop offset="0" stop-color="#FFF6D0"/><stop offset="0.45" stop-color="#FFC93C"/><stop offset="1" stop-color="#FF6A0F"/></radialGradient>
<linearGradient id="tip-start-d-fall" x1="0" y1="0" x2="0" y2="1"><stop offset="0" stop-color="#F4E6CC" stop-opacity="0.95"/><stop offset="1" stop-color="#F4E6CC" stop-opacity="0"/></linearGradient>
<linearGradient id="tip-start-d-word" x1="0" y1="0" x2="0" y2="1"><stop offset="0.2" stop-color="#FFF8EC"/><stop offset="0.5" stop-color="#FFD27A"/><stop offset="0.72" stop-color="#FF8A2A"/><stop offset="0.9" stop-color="#E2470A"/></linearGradient>
<linearGradient id="tip-start-d-chief" x1="0" y1="0" x2="0" y2="1"><stop offset="0" stop-color="#FFA040"/><stop offset="1" stop-color="#F05A0A"/></linearGradient>
<filter id="tip-start-d-wordglow" x="-10%" y="-20%" width="120%" height="140%"><feGaussianBlur in="SourceAlpha" stdDeviation="10" result="b"/><feFlood flood-color="#FF6A0F" flood-opacity="0.7"/><feComposite in2="b" operator="in" result="g"/><feMerge><feMergeNode in="g"/><feMergeNode in="SourceGraphic"/></feMerge></filter>
<filter id="tip-start-d-glow" x="-50%" y="-50%" width="200%" height="200%"><feGaussianBlur in="SourceGraphic" stdDeviation="2.6" result="b"/><feMerge><feMergeNode in="b"/><feMergeNode in="SourceGraphic"/></feMerge></filter>
<filter id="tip-start-d-blur" x="-50%" y="-50%" width="200%" height="200%"><feGaussianBlur stdDeviation="14"/></filter>
<filter id="tip-start-d-mist" x="-30%" y="-200%" width="160%" height="500%"><feGaussianBlur stdDeviation="20"/></filter>
<marker id="tip-start-d-hot" viewBox="0 0 12 12" refX="10" refY="6" markerWidth="9" markerHeight="9" markerUnits="userSpaceOnUse" orient="auto-start-reverse"><path d="M0 0 L12 6 L0 12 L3 6 z" fill="#FF6A0F"/></marker>
<marker id="tip-start-d-muted" viewBox="0 0 12 12" refX="10" refY="6" markerWidth="9" markerHeight="9" markerUnits="userSpaceOnUse" orient="auto-start-reverse"><path d="M0 0 L12 6 L0 12 L3 6 z" fill="#8A705C"/></marker>
<marker id="tip-start-d-bad" viewBox="0 0 12 12" refX="10" refY="6" markerWidth="9" markerHeight="9" markerUnits="userSpaceOnUse" orient="auto-start-reverse"><path d="M0 0 L12 6 L0 12 L3 6 z" fill="#FF6A55"/></marker>
<marker id="tip-start-d-loop" viewBox="0 0 12 12" refX="10" refY="6" markerWidth="9" markerHeight="9" markerUnits="userSpaceOnUse" orient="auto-start-reverse"><path d="M0 0 L12 6 L0 12 L3 6 z" fill="#FFC93C"/></marker>
<clipPath id="tip-start-d-frame"><rect width="1100" height="230" rx="24"/></clipPath>
</defs>
<g clip-path="url(#tip-start-d-frame)">
<rect width="1100" height="230" rx="24" fill="#0C0806"/>
<circle cx="120" cy="115" r="129" fill="url(#tip-start-d-moonglow)" opacity="0.3"/>
<circle cx="120" cy="115" r="96" fill="url(#tip-start-d-moon)" opacity="0.22"/>
<path d="M-60 230 L-60 200 C-48 180.9 -45 165.3 -30 165.3 C-15 165.3 -12 173.3 0 183 C14.6 158.9 18.3 139.1 36.6 139.1 C54.8 139.1 58.5 152.3 73.1 168.5 C90.6 167.8 95 167.3 116.9 167.3 C138.7 167.3 143.1 181 160.6 197.7 C184.3 153.1 190.2 116.7 219.9 116.7 C249.5 116.7 255.4 152.3 279.1 195.9 C300.3 179.3 305.5 165.7 331.9 165.7 C358.3 165.7 363.6 169.3 384.7 173.7 C401.8 145.1 406 121.7 427.4 121.7 C448.7 121.7 452.9 152.6 470 190.5 C492.6 176.8 498.3 165.7 526.6 165.7 C554.8 165.7 560.5 164.2 583.1 162.3 C598.6 158 602.5 154.5 621.8 154.5 C641.2 154.5 645 159.8 660.5 166.3 C675.3 157.3 679 149.9 697.5 149.9 C715.9 149.9 719.6 157.1 734.4 166 C749.7 138.6 753.5 116.2 772.5 116.2 C791.6 116.2 795.4 140.7 810.7 170.5 C825.3 149.5 829 132.3 847.3 132.3 C865.6 132.3 869.2 160.3 883.9 194.6 C901.5 154 906 120.9 928 120.9 C950.1 120.9 954.5 153.3 972.2 193 C991.5 165.5 996.3 143.1 1020.5 143.1 C1044.7 143.1 1049.5 155.7 1068.9 171.1 C1084.8 148.8 1088.8 130.5 1108.6 130.5 C1128.5 130.5 1132.5 153.5 1148.4 181.6 C1165.2 163.6 1169.4 148.8 1190.5 148.8 C1211.5 148.8 1215.7 168.3 1232.6 192.1 L1232.6 230 Z" fill="#3A2B21" opacity="0.3"/>
<path d="M-60 230 L-60 280 C-44 251 -40 227.2 -20 227.2 C0 227.2 4 241.7 20 259.5 C43.8 247.2 49.8 237.2 79.5 237.2 C109.2 237.2 115.2 251.2 139 268.4 C157.9 217.9 162.7 176.5 186.4 176.5 C210.1 176.5 214.8 206.4 233.8 242.9 C262.8 240.4 270 238.3 306.3 238.3 C342.6 238.3 349.9 249.6 378.9 263.5 C395.7 226.5 399.9 196.3 420.8 196.3 C441.8 196.3 446 224.7 462.8 259.5 C491.3 227.8 498.5 201.9 534.1 201.9 C569.8 201.9 576.9 230.5 605.5 265.5 C621.8 246 625.9 230.1 646.2 230.1 C666.6 230.1 670.6 241.4 686.9 255.1 C706.8 220.6 711.8 192.3 736.7 192.3 C761.5 192.3 766.5 218.6 786.4 250.8 C813.2 215.4 819.9 186.4 853.4 186.4 C886.8 186.4 893.5 222.7 920.3 267.1 C946.6 230.9 953.1 201.4 986 201.4 C1018.8 201.4 1025.4 219.5 1051.7 241.8 C1078.7 209.1 1085.4 182.4 1119.2 182.4 C1152.9 182.4 1159.7 220.3 1186.6 266.6 L1186.6 230 Z" fill="#3A2B21" opacity="0.45"/>
<ellipse cx="80" cy="189.5" rx="262.2" ry="26" fill="#E9D6BC" opacity="0" filter="url(#tip-start-d-mist)"/><ellipse cx="399.8" cy="155.7" rx="218.8" ry="26" fill="#E9D6BC" opacity="0" filter="url(#tip-start-d-mist)"/><ellipse cx="663.8" cy="190.4" rx="273.4" ry="26" fill="#E9D6BC" opacity="0" filter="url(#tip-start-d-mist)"/><ellipse cx="929.3" cy="160.4" rx="221.4" ry="26" fill="#E9D6BC" opacity="0" filter="url(#tip-start-d-mist)"/>
<circle cx="397.1" cy="27.3" r="2.8" fill="#FF8A2A" opacity="0.2"/><circle cx="479.9" cy="199.5" r="2.2" fill="#FF8A2A" opacity="0.4"/><circle cx="507.4" cy="71.2" r="1" fill="#FFC93C" opacity="0.3"/><circle cx="879.6" cy="79.3" r="1.3" fill="#FFC93C" opacity="0.4"/><circle cx="193" cy="168.6" r="2.9" fill="#FFC93C" opacity="0.3"/><circle cx="987.5" cy="136.5" r="2.5" fill="#FF8A2A" opacity="0.3"/><circle cx="187.7" cy="100.5" r="1.6" fill="#FF8A2A" opacity="0.4"/><circle cx="432" cy="55.9" r="1.6" fill="#FFC93C" opacity="0.4"/><circle cx="478.5" cy="112.8" r="2" fill="#FF8A2A" opacity="0.3"/><circle cx="574" cy="130.5" r="2.1" fill="#FFC93C" opacity="0.3"/><circle cx="370.6" cy="106.2" r="2.4" fill="#FF8A2A" opacity="0.3"/><circle cx="996" cy="93.2" r="2.1" fill="#FFC93C" opacity="0.3"/><circle cx="767.2" cy="67.6" r="2.6" fill="#FFC93C" opacity="0.2"/><circle cx="684.4" cy="35.1" r="1.8" fill="#FF8A2A" opacity="0.2"/><circle cx="742" cy="139.1" r="3" fill="#FF8A2A" opacity="0.2"/><circle cx="583.5" cy="163.5" r="2" fill="#FFC93C" opacity="0.2"/><circle cx="84" cy="59.4" r="1.6" fill="#FF8A2A" opacity="0.4"/><circle cx="380" cy="102.9" r="2.8" fill="#FFC93C" opacity="0.4"/><circle cx="32.8" cy="51.4" r="2.3" fill="#FFC93C" opacity="0.4"/><circle cx="806" cy="166.9" r="1.8" fill="#FF8A2A" opacity="0.2"/><circle cx="866.8" cy="32.1" r="2.1" fill="#FFC93C" opacity="0.3"/><circle cx="415.3" cy="22.8" r="1" fill="#FF8A2A" opacity="0.3"/><circle cx="750.9" cy="57.9" r="2.8" fill="#FFC93C" opacity="0.3"/><circle cx="295.9" cy="162.8" r="1.7" fill="#FFC93C" opacity="0.5"/><circle cx="548.6" cy="160.2" r="2.9" fill="#FF8A2A" opacity="0.5"/><circle cx="843.7" cy="168.3" r="2.4" fill="#FFC93C" opacity="0.2"/><circle cx="771.6" cy="176.7" r="1.4" fill="#FF8A2A" opacity="0.3"/><circle cx="873.8" cy="139.7" r="3" fill="#FFC93C" opacity="0.2"/><circle cx="691.6" cy="68.7" r="1" fill="#FF8A2A" opacity="0.3"/><circle cx="425.1" cy="199.8" r="0.8" fill="#FF8A2A" opacity="0.3"/><circle cx="160.4" cy="154.9" r="2.4" fill="#FF8A2A" opacity="0.4"/><circle cx="473.9" cy="107.6" r="2.6" fill="#FF8A2A" opacity="0.4"/><circle cx="301.2" cy="148.4" r="2.8" fill="#FF8A2A" opacity="0.4"/><circle cx="297.2" cy="28.5" r="2.2" fill="#FF8A2A" opacity="0.2"/><circle cx="441.8" cy="123.5" r="1.4" fill="#FF8A2A" opacity="0.3"/><circle cx="581.6" cy="20.4" r="1" fill="#FFC93C" opacity="0.3"/><circle cx="822.2" cy="51.1" r="1.2" fill="#FF8A2A" opacity="0.3"/><circle cx="561.7" cy="197.8" r="2.5" fill="#FF8A2A" opacity="0.3"/><circle cx="748.4" cy="128.7" r="1.9" fill="#FF8A2A" opacity="0.4"/><circle cx="425.8" cy="58" r="2.2" fill="#FF8A2A" opacity="0.4"/>
<g class="pulse"><circle cx="120" cy="115" r="88" fill="#FF6A0F" opacity="0.34" filter="url(#tip-start-d-blur)"/></g><circle cx="120" cy="115" r="82" fill="none" stroke="#FFC93C" stroke-width="1" opacity="0.45"/><defs><clipPath id="tip-start-d-emblem"><circle cx="120" cy="115" r="74"/></clipPath></defs><circle cx="120" cy="115" r="74" fill="#0A0604"/><g clip-path="url(#tip-start-d-emblem)"><g class="pulse"><ellipse cx="120" cy="116.9" rx="81.8" ry="62.3" fill="url(#tip-start-d-haze)" opacity="0.48"/></g><path d="M68.6 144.9 C54.6 148 39.8 155.1 33.5 175.3 L30.4 201 L209.6 201 L206.5 175.3 C200.2 155.1 185.4 148 171.4 144.9 Z" fill="url(#tip-start-d-bust)"/><path d="M61.6 146.5 C50.7 149.6 39 156.6 33.5 176.1" fill="none" stroke="#F2C88C" stroke-width="0.9" opacity="0.45" stroke-linecap="round"/><path d="M178.4 146.5 C189.3 149.6 201 156.6 206.5 176.1" fill="none" stroke="#F2C88C" stroke-width="0.9" opacity="0.45" stroke-linecap="round"/><path d="M73.3 149.6 C84.2 160.5 96.6 175.3 109.9 197.1" fill="none" stroke="#C2410C" stroke-width="1.2" opacity="0.8" stroke-linecap="round"/><path d="M166.7 149.6 C155.8 160.5 143.4 175.3 130.1 197.1" fill="none" stroke="#C2410C" stroke-width="1.2" opacity="0.8" stroke-linecap="round"/><path d="M120 39.8 C130.1 43.7 156.6 53.8 168.3 84.2 C175.3 102.1 177.6 124.7 180 147.3 C167.5 154.3 147.3 157.4 120 157.4 C92.7 157.4 72.5 154.3 60 147.3 C62.4 124.7 64.7 102.1 71.7 84.2 C83.4 53.8 109.9 43.7 120 39.8 Z" fill="url(#tip-start-d-hood)"/><path d="M95.9 51.5 C84.2 65.5 75.6 85 71.7 109.1" fill="none" stroke="#4A392B" stroke-width="1" opacity="0.8" stroke-linecap="round"/><path d="M144.1 51.5 C155.8 65.5 164.4 85 168.3 109.1" fill="none" stroke="#4A392B" stroke-width="1" opacity="0.8" stroke-linecap="round"/><path d="M120 39.8 C121.2 49.9 120.8 59.2 120 67.8" fill="none" stroke="#4A392B" stroke-width="1" stroke-linecap="round" opacity="0.8"/><path d="M61.6 136.4 C63.1 116.9 65.5 101.3 71.7 84.2 C83.4 53.8 109.9 43.7 120 39.8 C130.1 43.7 156.6 53.8 168.3 84.2 C174.5 101.3 176.9 116.9 178.4 136.4" fill="none" stroke="#F2C88C" stroke-width="1" opacity="0.6" filter="url(#tip-start-d-glow)"/><path d="M120 69.4 C142.6 69.4 158.2 85 161.3 104.4 C163.6 122.3 162.1 141.8 158.2 152.7 C147.3 159 92.7 159 81.8 152.7 C77.9 141.8 76.4 122.3 78.7 104.4 C81.8 85 97.4 69.4 120 69.4 Z" fill="#040202"/><path d="M81.8 152.7 C77.9 141.8 76.4 122.3 78.7 104.4 C81.8 85 97.4 69.4 120 69.4 C142.6 69.4 158.2 85 161.3 104.4 C163.6 122.3 162.1 141.8 158.2 152.7" fill="none" stroke="#3E2F23" stroke-width="2.7"/><path d="M81.1 98.2 C77.9 113 78.7 129.4 84.9 141 C93.5 152.7 108.3 156.6 120 156.6 C131.7 156.6 146.5 152.7 155.1 141 C161.3 129.4 162.1 113 158.9 98.2 C151.2 83.4 88.8 83.4 81.1 98.2 Z" fill="url(#tip-start-d-skin)"/><ellipse cx="85.7" cy="123.9" rx="5.5" ry="10.1" fill="#3A291C" opacity="0.85"/><path d="M90.4 115.3 C92 122.3 91.2 130.1 88.1 134" fill="none" stroke="#120C08" stroke-width="0.6" stroke-linecap="round" opacity="0.7"/><circle cx="85.7" cy="120.8" r="1" fill="#1D130C"/><circle cx="87.7" cy="126.2" r="1" fill="#1D130C"/><circle cx="84.2" cy="130.1" r="1" fill="#1D130C"/><circle cx="86.5" cy="132.5" r="1" fill="#1D130C"/><ellipse cx="154.3" cy="123.9" rx="5.5" ry="10.1" fill="#3A291C" opacity="0.85"/><path d="M149.6 115.3 C148 122.3 148.8 130.1 151.9 134" fill="none" stroke="#120C08" stroke-width="0.6" stroke-linecap="round" opacity="0.7"/><circle cx="154.3" cy="120.8" r="1" fill="#1D130C"/><circle cx="152.3" cy="126.2" r="1" fill="#1D130C"/><circle cx="155.8" cy="130.1" r="1" fill="#1D130C"/><circle cx="153.5" cy="132.5" r="1" fill="#1D130C"/><circle cx="103" cy="121" r="1.4" fill="#1D130C" opacity="0.85"/><circle cx="102.6" cy="120.5" r="0.6" fill="#9A7050" opacity="0.5"/><circle cx="92" cy="128" r="1.2" fill="#1D130C" opacity="0.85"/><circle cx="91.6" cy="127.6" r="0.6" fill="#9A7050" opacity="0.5"/><circle cx="145.4" cy="128.1" r="0.7" fill="#1D130C" opacity="0.85"/><circle cx="145.2" cy="127.9" r="0.3" fill="#9A7050" opacity="0.5"/><circle cx="98" cy="143.5" r="1.2" fill="#1D130C" opacity="0.85"/><circle cx="97.6" cy="143.1" r="0.6" fill="#9A7050" opacity="0.5"/><circle cx="105" cy="146.2" r="0.6" fill="#1D130C" opacity="0.85"/><circle cx="104.9" cy="146" r="0.3" fill="#9A7050" opacity="0.5"/><circle cx="121.7" cy="115.7" r="1.3" fill="#1D130C" opacity="0.85"/><circle cx="121.3" cy="115.2" r="0.6" fill="#9A7050" opacity="0.5"/><circle cx="155.8" cy="125.4" r="1.6" fill="#1D130C" opacity="0.85"/><circle cx="155.3" cy="124.9" r="0.7" fill="#9A7050" opacity="0.5"/><circle cx="155" cy="124" r="0.8" fill="#1D130C" opacity="0.85"/><circle cx="154.8" cy="123.7" r="0.3" fill="#9A7050" opacity="0.5"/><circle cx="100.9" cy="138.3" r="0.6" fill="#1D130C" opacity="0.85"/><circle cx="100.7" cy="138.1" r="0.3" fill="#9A7050" opacity="0.5"/><circle cx="120.7" cy="148.6" r="1.1" fill="#1D130C" opacity="0.85"/><circle cx="120.4" cy="148.3" r="0.5" fill="#9A7050" opacity="0.5"/><circle cx="89.5" cy="126.7" r="1.2" fill="#1D130C" opacity="0.85"/><circle cx="89.2" cy="126.3" r="0.5" fill="#9A7050" opacity="0.5"/><circle cx="124" cy="151.8" r="0.7" fill="#1D130C" opacity="0.85"/><circle cx="123.7" cy="151.5" r="0.3" fill="#9A7050" opacity="0.5"/><circle cx="125.1" cy="127.6" r="1.5" fill="#1D130C" opacity="0.85"/><circle cx="124.6" cy="127" r="0.7" fill="#9A7050" opacity="0.5"/><circle cx="125.4" cy="151.1" r="0.7" fill="#1D130C" opacity="0.85"/><circle cx="125.2" cy="150.9" r="0.3" fill="#9A7050" opacity="0.5"/><circle cx="103.5" cy="147.5" r="1" fill="#1D130C" opacity="0.85"/><circle cx="103.2" cy="147.1" r="0.4" fill="#9A7050" opacity="0.5"/><circle cx="149.1" cy="122.9" r="1.4" fill="#1D130C" opacity="0.85"/><circle cx="148.7" cy="122.4" r="0.6" fill="#9A7050" opacity="0.5"/><circle cx="107.6" cy="149" r="1.1" fill="#1D130C" opacity="0.85"/><circle cx="107.2" cy="148.7" r="0.5" fill="#9A7050" opacity="0.5"/><circle cx="105.7" cy="139.3" r="1.7" fill="#1D130C" opacity="0.85"/><circle cx="105.2" cy="138.7" r="0.7" fill="#9A7050" opacity="0.5"/><circle cx="119.4" cy="144.5" r="0.8" fill="#1D130C" opacity="0.85"/><circle cx="119.2" cy="144.2" r="0.3" fill="#9A7050" opacity="0.5"/><circle cx="120.7" cy="116.6" r="1.3" fill="#1D130C" opacity="0.85"/><circle cx="120.4" cy="116.1" r="0.6" fill="#9A7050" opacity="0.5"/><circle cx="97.7" cy="145.2" r="1" fill="#1D130C" opacity="0.85"/><circle cx="97.4" cy="144.8" r="0.4" fill="#9A7050" opacity="0.5"/><circle cx="146" cy="143.1" r="0.8" fill="#1D130C" opacity="0.85"/><circle cx="145.7" cy="142.8" r="0.4" fill="#9A7050" opacity="0.5"/><circle cx="103.1" cy="121.7" r="0.9" fill="#1D130C" opacity="0.85"/><circle cx="102.8" cy="121.4" r="0.4" fill="#9A7050" opacity="0.5"/><circle cx="118.9" cy="138.3" r="0.6" fill="#1D130C" opacity="0.85"/><circle cx="118.7" cy="138" r="0.3" fill="#9A7050" opacity="0.5"/><circle cx="87.6" cy="131.7" r="1.6" fill="#1D130C" opacity="0.85"/><circle cx="87.2" cy="131.2" r="0.7" fill="#9A7050" opacity="0.5"/><circle cx="137.5" cy="148.9" r="1.1" fill="#1D130C" opacity="0.85"/><circle cx="137.1" cy="148.5" r="0.5" fill="#9A7050" opacity="0.5"/><circle cx="109.4" cy="119.4" r="1.6" fill="#1D130C" opacity="0.85"/><circle cx="108.9" cy="118.8" r="0.7" fill="#9A7050" opacity="0.5"/><circle cx="107.8" cy="139.5" r="1.5" fill="#1D130C" opacity="0.85"/><circle cx="107.4" cy="138.9" r="0.7" fill="#9A7050" opacity="0.5"/><circle cx="144" cy="145.1" r="0.8" fill="#1D130C" opacity="0.85"/><circle cx="143.8" cy="144.8" r="0.3" fill="#9A7050" opacity="0.5"/><circle cx="97.4" cy="144" r="1.4" fill="#1D130C" opacity="0.85"/><circle cx="97" cy="143.5" r="0.6" fill="#9A7050" opacity="0.5"/><circle cx="110.5" cy="126.5" r="1.1" fill="#1D130C" opacity="0.85"/><circle cx="110.2" cy="126.1" r="0.5" fill="#9A7050" opacity="0.5"/><circle cx="135.3" cy="147.9" r="0.7" fill="#1D130C" opacity="0.85"/><circle cx="135.1" cy="147.7" r="0.3" fill="#9A7050" opacity="0.5"/><circle cx="120.5" cy="111.5" r="1.1" fill="#1D130C" opacity="0.85"/><circle cx="120.2" cy="111.1" r="0.5" fill="#9A7050" opacity="0.5"/><circle cx="101.1" cy="120.2" r="1.5" fill="#1D130C" opacity="0.85"/><circle cx="100.7" cy="119.7" r="0.7" fill="#9A7050" opacity="0.5"/><circle cx="112.5" cy="151.8" r="1" fill="#1D130C" opacity="0.85"/><circle cx="112.2" cy="151.5" r="0.4" fill="#9A7050" opacity="0.5"/><circle cx="108.2" cy="150.3" r="0.9" fill="#1D130C" opacity="0.85"/><circle cx="108" cy="150" r="0.4" fill="#9A7050" opacity="0.5"/><path d="M77.9 93.5 C87.3 91.2 101.3 95.1 117.7 106 C104.4 101.3 90.4 99 77.9 99.8 Z" fill="#120B07"/><path d="M162.1 93.5 C152.7 91.2 138.7 95.1 122.3 106 C135.6 101.3 149.6 99 162.1 99.8 Z" fill="#120B07"/><path d="M79.5 92.4 C88.8 90.8 101.3 94.3 115.3 103.6" fill="none" stroke="#FF8A2A" stroke-width="0.6" opacity="0.6" stroke-linecap="round"/><path d="M160.5 92.4 C151.2 90.8 138.7 94.3 124.7 103.6" fill="none" stroke="#FF8A2A" stroke-width="0.6" opacity="0.6" stroke-linecap="round"/><g class="pulse"><ellipse cx="100.5" cy="109.9" rx="17.9" ry="8.6" fill="#FF6A0F" opacity="0.45" filter="url(#tip-start-d-blur)"/><ellipse cx="139.5" cy="109.9" rx="17.9" ry="8.6" fill="#FF6A0F" opacity="0.45" filter="url(#tip-start-d-blur)"/></g><defs><clipPath id="tip-start-d-eye1"><path d="M112 111.4 C109 107 99.5 104.2 92 108.7 C94.4 113.9 105.1 116.3 112 111.4 Z"/></clipPath></defs><path d="M111.1 106.1 C105.8 102.6 96.5 100.2 85.7 99.8 C95.2 101.7 103.2 103.8 111.1 106.1 Z" fill="url(#tip-start-d-markL)" filter="url(#tip-start-d-glow)"/><path d="M112.6 111.1 C109.3 105.8 99.5 102.6 91.4 107.3 L86.1 103.9 L89.7 109.8 C98.1 112.5 106.1 112.5 112 111.4 Z" fill="url(#tip-start-d-markL)" filter="url(#tip-start-d-glow)"/><path d="M103.7 116.1 C97.3 116.4 91.4 114.4 85.9 111.8 C90.7 113.7 96.5 115.2 103.7 116.1 Z" fill="url(#tip-start-d-markL)" filter="url(#tip-start-d-glow)"/><path d="M112 111.4 C109 107 99.5 104.2 92 108.7 C94.4 113.9 105.1 116.3 112 111.4 Z" fill="url(#tip-start-d-iris)"/><g clip-path="url(#tip-start-d-eye1)"><path d="M99.6 110.5 L93.2 110.7 M99.7 110.8 L93.6 112.3 M99.9 111.1 L94.6 113.7 M100.3 111.3 L96.1 114.8 M100.8 111.5 L97.9 115.7 M101.4 111.6 L100 116.3 M101.9 111.6 L102.3 116.4 M102.5 111.6 L104.5 116.1 M103.1 111.4 L106.5 115.4 M103.5 111.2 L108.2 114.4 M103.8 111 L109.5 113.1 M104 110.7 L110.3 111.7 M104.1 110.4 L110.4 110.1 M104 110.1 L110 108.6 M103.7 109.8 L109.1 107.2 M103.3 109.5 L107.6 106 M102.9 109.4 L105.8 105.1 M102.3 109.3 L103.6 104.6 M101.7 109.2 L101.4 104.5 M101.1 109.3 L99.2 104.8 M100.6 109.4 L97.2 105.4 M100.2 109.6 L95.5 106.4 M99.8 109.9 L94.2 107.7 M99.6 110.2 L93.4 109.2" fill="none" stroke="#7A3203" stroke-width="0.1" opacity="0.3"/><g class="pulse"><rect x="96.1" y="108.6" width="11.4" height="3.6" rx="1.8" fill="#FFF1A8" opacity="0.5"/></g><rect x="97.1" y="109.4" width="9.5" height="2" rx="1" fill="#050302"/><rect x="90.8" y="103.3" width="21.8" height="6.6" rx="0" fill="url(#tip-start-d-lid)"/></g><path d="M112 111.4 C109 107 99.5 104.2 92 108.7 C94.4 113.9 105.1 116.3 112 111.4 Z" fill="none" stroke="#050302" stroke-width="0.5"/><path d="M111.8 110 C108.5 105.8 99.5 102.9 91.5 107.3" fill="none" stroke="#050302" stroke-width="0.4" stroke-linecap="round"/><ellipse cx="104.1" cy="108.6" rx="0.7" ry="0.4" fill="#FFFFFF" opacity="0.92"/><circle cx="102.6" cy="108.1" r="0.2" fill="#FFFFFF" opacity="0.8"/><defs><clipPath id="tip-start-d-eye2"><path d="M128 111.4 C131 107 140.5 104.2 148 108.7 C145.6 113.9 134.9 116.3 128 111.4 Z"/></clipPath></defs><path d="M128.9 106.1 C134.2 102.6 143.5 100.2 154.3 99.8 C144.8 101.7 136.8 103.8 128.9 106.1 Z" fill="url(#tip-start-d-markR)" filter="url(#tip-start-d-glow)"/><path d="M127.4 111.1 C130.7 105.8 140.5 102.6 148.6 107.3 L153.9 103.9 L150.3 109.8 C141.9 112.5 133.9 112.5 128 111.4 Z" fill="url(#tip-start-d-markR)" filter="url(#tip-start-d-glow)"/><path d="M136.3 116.1 C142.7 116.4 148.6 114.4 154.1 111.8 C149.3 113.7 143.5 115.2 136.3 116.1 Z" fill="url(#tip-start-d-markR)" filter="url(#tip-start-d-glow)"/><path d="M128 111.4 C131 107 140.5 104.2 148 108.7 C145.6 113.9 134.9 116.3 128 111.4 Z" fill="url(#tip-start-d-iris)"/><g clip-path="url(#tip-start-d-eye2)"><path d="M140.4 110.5 L146.8 110.7 M140.3 110.8 L146.4 112.3 M140.1 111.1 L145.4 113.7 M139.7 111.3 L143.9 114.8 M139.2 111.5 L142.1 115.7 M138.6 111.6 L140 116.3 M138.1 111.6 L137.7 116.4 M137.5 111.6 L135.5 116.1 M136.9 111.4 L133.5 115.4 M136.5 111.2 L131.8 114.4 M136.2 111 L130.5 113.1 M136 110.7 L129.7 111.7 M135.9 110.4 L129.6 110.1 M136 110.1 L130 108.6 M136.3 109.8 L130.9 107.2 M136.7 109.5 L132.4 106 M137.1 109.4 L134.2 105.1 M137.7 109.3 L136.4 104.6 M138.3 109.2 L138.6 104.5 M138.9 109.3 L140.8 104.8 M139.4 109.4 L142.8 105.4 M139.8 109.6 L144.5 106.4 M140.2 109.9 L145.8 107.7 M140.4 110.2 L146.6 109.2" fill="none" stroke="#7A3203" stroke-width="0.1" opacity="0.3"/><g class="pulse"><rect x="132.5" y="108.6" width="11.4" height="3.6" rx="1.8" fill="#FFF1A8" opacity="0.5"/></g><rect x="133.4" y="109.4" width="9.5" height="2" rx="1" fill="#050302"/><rect x="127.3" y="103.3" width="21.8" height="6.6" rx="0" fill="url(#tip-start-d-lid)"/></g><path d="M128 111.4 C131 107 140.5 104.2 148 108.7 C145.6 113.9 134.9 116.3 128 111.4 Z" fill="none" stroke="#050302" stroke-width="0.5"/><path d="M128.2 110 C131.5 105.8 140.5 102.9 148.5 107.3" fill="none" stroke="#050302" stroke-width="0.4" stroke-linecap="round"/><ellipse cx="135.9" cy="108.6" rx="0.7" ry="0.4" fill="#FFFFFF" opacity="0.92"/><circle cx="137.4" cy="108.1" r="0.2" fill="#FFFFFF" opacity="0.8"/><ellipse cx="115.7" cy="122.3" rx="1.4" ry="0.9" fill="#070403"/><ellipse cx="124.3" cy="122.3" rx="1.4" ry="0.9" fill="#070403"/><path d="M84.9 139.1 C95.1 135.2 107.5 134.4 120 135.2 C132.5 134.4 144.9 135.2 155.1 139.1" fill="none" stroke="#8A6242" stroke-width="0.6" stroke-linecap="round" opacity="0.55"/><path d="M80.3 137.1 C92 131.7 106.8 130.9 120 131.7 C133.2 130.9 148 131.7 159.7 137.1" fill="none" stroke="#050302" stroke-width="1.8" stroke-linecap="round"/><path d="M80.3 137.1 C79.1 139.5 79.5 142.6 81.4 145.3" fill="none" stroke="#050302" stroke-width="1.2" stroke-linecap="round"/><path d="M159.7 137.1 C160.9 139.5 160.5 142.6 158.6 145.3" fill="none" stroke="#050302" stroke-width="1.2" stroke-linecap="round"/></g><circle cx="120" cy="115" r="74" fill="none" stroke="#FFC93C" stroke-width="3.2"/><circle cx="120" cy="115" r="68" fill="none" stroke="#FF6A0F" stroke-width="1.2" opacity="0.75"/>
<rect x="222" y="32" width="842" height="166" rx="4" fill="#FF6A0F" opacity="0.5" filter="url(#tip-start-d-glow)"/>
<rect x="222" y="32" width="842" height="166" rx="4" fill="#17100C" stroke="#FF6A0F" stroke-width="1.5"/>
<rect x="231" y="41" width="824" height="148" rx="2" fill="none" stroke="#8A705C" stroke-width="1" opacity="0.6"/>
<rect x="213" y="22" width="14" height="186" rx="7" fill="#3D2D21" stroke="#120C08" stroke-width="1"/>
<rect x="1059" y="22" width="14" height="186" rx="7" fill="#3D2D21" stroke="#120C08" stroke-width="1"/>
<rect x="1014" y="150" width="20" height="20" rx="2" fill="#C2410C" opacity="0.85"/>
<text x="262" y="74.4" font-family="-apple-system, BlinkMacSystemFont, 'Segoe UI', Inter, Helvetica, Arial, sans-serif" font-size="24" font-weight="800" fill="#FFC93C" text-anchor="start" letter-spacing="2"><tspan x="262" dy="0">TIP</tspan></text>
<text x="262" y="110.4" font-family="-apple-system, BlinkMacSystemFont, 'Segoe UI', Inter, Helvetica, Arial, sans-serif" font-size="24" font-weight="600" fill="#FFF3E6" text-anchor="start"><tspan x="262" dy="0">Start a message with “sage mode” to switch it on,</tspan><tspan x="262" dy="33.599999999999994">and with “sage mode off” to switch it off.</tspan><tspan x="262" dy="33.599999999999994">In the middle of a sentence, it does nothing.</tspan></text>
</g>
<rect x="0.75" y="0.75" width="1098.5" height="228.5" rx="23.25" fill="none" stroke="#3A2414" stroke-width="1.5"/>
</svg>
